<svg xmlns="http://www.w3.org/2000/svg" viewBox="0 0 200 200" width="200" height="200">
  <g fill="none" stroke="#7141F0" stroke-width="12" stroke-linecap="round" stroke-linejoin="round">
    
    <path d="M50 140 C 30 140, 20 100, 40 70 C 60 40, 90 30, 100 35" />
    
    <path d="M100 35 C 130 30, 170 50, 170 90 C 170 130, 140 150, 120 160" />
    
    <path d="M40 70 L 70 90 L 100 35" />
    <path d="M70 90 L 50 140 L 100 120" />
    <path d="M100 120 L 120 160" />
    <path d="M100 35 L 130 70 L 170 90" />
    <path d="M130 70 L 100 120" />
    <path d="M70 90 L 130 70" />
    
    <g fill="#7141F0" stroke="none">
      <circle cx="40" cy="70" r="10" />
      <circle cx="100" cy="35" r="10" />
      <circle cx="170" cy="90" r="10" />
      <circle cx="50" cy="140" r="10" />
      <circle cx="120" cy="160" r="10" />
      <circle cx="70" cy="90" r="10" />
      <circle cx="130" cy="70" r="10" />
      <circle cx="100" cy="120" r="10" />
    </g>
  </g>
</svg>
